<?xml version="1.0" encoding="UTF-8"?>
<svg version="1.1" xmlns="http://www.w3.org/2000/svg" width="512" height="512">
<path d="M0 0 C2.21875 0.078125 2.21875 0.078125 4.4375 0.875 C7.2650352 4.02497342 9.12186968 7.71662216 11.10595703 11.42919922 C13.30160344 15.46219989 15.63507972 19.41489236 17.94482422 23.38330078 C19.9240469 26.78934854 21.88823864 30.20362 23.84765625 33.62109375 C25.94913559 37.28618359 28.05668908 40.94726423 30.18359375 44.59765625 C30.75400391 45.58100952 30.75400391 45.58100952 31.3359375 46.58422852 C32.29345719 48.2344651 33.25401003 49.88294077 34.21484375 51.53125 C35.4375 53.875 35.4375 53.875 35.4375 55.875 C36.18717954 55.87039104 36.93685907 55.86578207 37.70925617 55.86103344 C55.93616278 55.75069425 74.16300289 55.66791174 92.390172 55.61593914 C101.20465386 55.59013859 110.01891302 55.55495298 118.83325195 55.49780273 C126.51431046 55.4480241 134.19520774 55.41572245 141.87642306 55.40455753 C145.9450534 55.39802927 150.01322238 55.38264843 154.08170509 55.34634972 C157.90916441 55.31247722 161.73597124 55.30192898 165.56356621 55.30946159 C166.97010466 55.30808308 168.37666433 55.29809771 169.78307343 55.27897263 C171.69989336 55.25417963 173.61706138 55.26303788 175.53401184 55.27372742 C176.60790067 55.26911845 177.68178949 55.26450949 178.78822041 55.25976086 C181.4375 55.875 181.4375 55.875 183.26508904 58.27931213 C184.32585554 60.62782202 185.02893421 62.63639189 185.5090332 65.1574707 C185.66981857 65.97585419 185.83060394 66.79423767 185.9962616 67.63742065 C186.15862808 68.51632965 186.32099457 69.39523865 186.48828125 70.30078125 C186.66784866 71.22899689 186.84741608 72.15721252 187.03242493 73.11355591 C187.61468973 76.13643289 188.18281353 79.16176067 188.75 82.1875 C189.14629337 84.26909103 189.54327001 86.35055208 189.94091797 88.43188477 C190.73693481 92.60567856 191.52721494 96.78050494 192.31396484 100.95605469 C193.16610887 105.46594986 194.04081938 109.9707506 194.93467712 114.47254944 C195.5178349 117.41020406 196.09240083 120.34949825 196.66537476 123.28915405 C197.05326517 125.26544872 197.45095336 127.23981237 197.84887695 129.21411133 C199.99693961 140.40120947 199.99693961 140.40120947 198.4375 145.875 C189.19027819 150.4986109 177.77620828 146.875 167.4375 146.875 C167.4375 204.295 167.4375 261.715 167.4375 320.875 C175.6875 320.875 183.9375 320.875 192.4375 320.875 C197.4375 324.875 197.4375 324.875 199.4375 327.875 C199.93680189 332.46340533 199.85414949 337.07490337 199.875 341.6875 C199.90787109 342.95916016 199.94074219 344.23082031 199.97460938 345.54101562 C200.03491695 356.00712078 200.03491695 356.00712078 197.03515625 359.69921875 C193.14467103 362.95786577 191.23551206 363.00194107 186.2110939 363.01201439 C185.5622483 363.01466622 184.91340269 363.01731804 184.2448951 363.02005023 C182.04966264 363.0277686 179.85448587 363.02830336 177.65924072 363.02890015 C176.07786632 363.0329131 174.49649296 363.03735104 172.91512084 363.0421797 C168.55301962 363.05416967 164.19092947 363.05979925 159.82881498 363.06436086 C155.1306609 363.07030775 150.43252012 363.08191983 145.734375 363.09265137 C134.38024792 363.11719576 123.02611642 363.1318052 111.67197096 363.14471143 C108.4667013 363.14842178 105.26143207 363.15239514 102.05616283 363.1564641 C82.16476688 363.18169824 62.27337026 363.20375795 42.38196182 363.21619225 C37.77254484 363.21912209 33.16312787 363.22208373 28.55371094 363.22509766 C27.40801973 363.22584371 26.26232852 363.22658976 25.0819194 363.22735842 C6.51418917 363.24001739 -12.05344542 363.27324657 -30.62113091 363.31489949 C-49.67097291 363.35728481 -68.72076588 363.38088332 -87.77065492 363.38611281 C-98.47184048 363.38953072 -109.17287657 363.40133062 -119.87401581 363.43421555 C-128.98596337 363.46217045 -138.09773083 363.47323546 -147.20971796 363.46202008 C-151.86063109 363.45682179 -156.51116678 363.4597959 -161.16202545 363.48448563 C-165.41844552 363.50689328 -169.67421516 363.50630488 -173.93064597 363.48728175 C-175.47174142 363.48446977 -177.01288018 363.49014656 -178.5539057 363.50509469 C-191.51447524 363.62314262 -191.51447524 363.62314262 -195.45538712 360.46199989 C-199.93862921 354.95771632 -198.82384725 348.92037898 -198.875 342.0625 C-198.90400391 340.77794922 -198.93300781 339.49339844 -198.96289062 338.16992188 C-198.97126953 336.93177734 -198.97964844 335.69363281 -198.98828125 334.41796875 C-199.00286377 333.28383545 -199.01744629 332.14970215 -199.0324707 330.98120117 C-198.45811562 327.18508704 -197.21752629 325.5978193 -194.5625 322.875 C-186.77691174 317.68460782 -175.91961257 320.875 -166.5625 320.875 C-166.5625 263.455 -166.5625 206.035 -166.5625 146.875 C-176.1325 146.875 -185.7025 146.875 -195.5625 146.875 C-198.88947954 142.43902727 -199.13426605 140.12125075 -198.5625 134.875 C-197.96663954 131.62543901 -197.15712595 128.44883477 -196.3203125 125.25390625 C-194.46189606 117.81632467 -192.8094205 110.38127225 -191.4296875 102.83984375 C-191.26341858 101.93118561 -191.09714966 101.02252747 -190.92584229 100.08633423 C-190.42560626 97.32911362 -189.93080541 94.57096838 -189.4375 91.8125 C-183.52746355 58.90187676 -183.52746355 58.90187676 -179.5625 55.875 C-176.92883778 55.50585651 -176.92883778 55.50585651 -173.69697571 55.51423645 C-172.47279938 55.51011246 -171.24862305 55.50598846 -169.98735046 55.5017395 C-168.62869043 55.5123569 -167.27003262 55.52326132 -165.91137695 55.53442383 C-164.48238137 55.53526994 -163.05338448 55.53479527 -161.62438965 55.53309631 C-157.74234581 55.5322343 -153.86057912 55.54989325 -149.97859979 55.57081819 C-145.92269302 55.5895507 -141.86678015 55.59133272 -137.81083679 55.59489441 C-130.12915201 55.60422497 -122.44759505 55.62885238 -114.76596659 55.65894288 C-106.02122049 55.69245548 -97.27646834 55.70896499 -88.53167403 55.72402918 C-70.54187683 55.75540109 -52.55219869 55.80818118 -34.5625 55.875 C-34.25910706 54.936633 -33.95571411 53.99826599 -33.64312744 53.03146362 C-32.61665211 50.03317585 -31.40851834 47.60106072 -29.796875 44.8828125 C-29.24281982 43.94123291 -28.68876465 42.99965332 -28.11791992 42.02954102 C-27.52213135 41.02979248 -26.92634277 40.03004395 -26.3125 39 C-25.05315852 36.8660193 -23.79405121 34.73190039 -22.53515625 32.59765625 C-21.55893311 30.94854248 -21.55893311 30.94854248 -20.56298828 29.26611328 C-18.54802835 25.85046849 -16.55031697 22.42533429 -14.55859375 18.99609375 C-13.92018555 17.89700684 -13.28177734 16.79791992 -12.62402344 15.66552734 C-11.38846159 13.53725758 -10.15342338 11.40868373 -8.91894531 9.27978516 C-8.08314941 7.8438501 -8.08314941 7.8438501 -7.23046875 6.37890625 C-6.73828857 5.53142822 -6.2461084 4.6839502 -5.73901367 3.81079102 C-3.86028697 0.71960528 -3.88701919 0.95470647 0 0 Z " fill="#163E58" transform="translate(255.5625,149.125)"/>
<path d="M0 0 C3.59396479 1.19798826 3.73619291 1.82372395 5.42578125 5.06640625 C5.8851709 5.93177002 6.34456055 6.79713379 6.81787109 7.6887207 C7.31109863 8.63706787 7.80432617 9.58541504 8.3125 10.5625 C12.66891685 18.74969778 17.16460505 26.82364375 21.875 34.8125 C27.23694353 43.93097501 32.45837094 53.11760122 37.60668945 62.3581543 C42.04136388 70.30975051 46.5378799 78.22441616 51.0625 86.125 C56.19810218 95.09814044 61.33273673 104.0717652 66.4375 113.0625 C66.98736572 114.02623535 67.53723145 114.9899707 68.10375977 115.98291016 C68.60447998 116.86640137 69.1052002 117.74989258 69.62109375 118.66015625 C70.27742798 119.81463257 70.27742798 119.81463257 70.94702148 120.99243164 C72 123 72 123 73 126 C100.39 126.33 127.78 126.66 156 127 C156 184.42 156 241.84 156 301 C123 301 90 301 56 301 C56 274.27 56 247.54 56 220 C57.98 219.01 59.96 218.02 62 217 C65.80858171 212.68414419 65.48356107 207.96870505 65.4375 202.5 C65.45748047 201.65824219 65.47746094 200.81648437 65.49804688 199.94921875 C65.49480221 195.82849008 65.3387033 193.55803346 63.16015625 189.96875 C59.99273301 187.08198451 57.42619872 186.87381535 53.30703735 186.85282898 C52.34251144 186.84567368 51.37798553 186.83851837 50.38423157 186.83114624 C49.32753769 186.82845734 48.27084381 186.82576843 47.18212891 186.82299805 C45.51102806 186.81314125 45.51102806 186.81314125 43.8061676 186.80308533 C40.11296525 186.78334534 36.41980353 186.77168951 32.7265625 186.76171875 C30.83693346 186.75560546 30.83693346 186.75560546 28.9091301 186.74936867 C22.93171573 186.73065851 16.95432604 186.71609169 10.97689021 186.7077567 C4.08028386 186.69798063 -2.81600185 186.67164814 -9.71249521 186.63125581 C-15.68884731 186.59745515 -21.66504369 186.58561171 -27.64149857 186.58155251 C-30.18285932 186.5766728 -32.72421631 186.56501978 -35.26551437 186.54651451 C-38.81838484 186.52224666 -42.37041241 186.52306569 -45.92333984 186.5300293 C-46.97598526 186.51721924 -48.02863068 186.50440918 -49.11317444 186.49121094 C-54.91742598 186.52911627 -54.91742598 186.52911627 -60.12979126 188.90437317 C-63.84086628 193.06274769 -63.21824719 196.97405838 -63.25 202.3125 C-63.270625 203.16779297 -63.29125 204.02308594 -63.3125 204.90429688 C-63.34223002 209.70197928 -63.34407209 213.25548231 -60 217 C-58.02 217.99 -56.04 218.98 -54 220 C-54 246.73 -54 273.46 -54 301 C-87 301 -120 301 -154 301 C-154 243.58 -154 186.16 -154 127 C-113.905 126.505 -113.905 126.505 -73 126 C-68.01727589 118.54647331 -68.01727589 118.54647331 -63.44140625 110.91015625 C-62.50361328 109.25983398 -62.50361328 109.25983398 -61.546875 107.57617188 C-61.06250977 106.7185022 -61.06250977 106.7185022 -60.56835938 105.84350586 C-59.173981 103.37457619 -57.77218356 100.90988482 -56.37081909 98.44491577 C-55.64563164 97.16925855 -54.92079979 95.89339911 -54.19631958 94.61734009 C-50.66142756 88.39388532 -47.08350039 82.19557569 -43.5 76 C-38.2950417 66.98914763 -33.10389275 57.9705151 -27.9375 48.9375 C-27.60582825 48.35760315 -27.27415649 47.7777063 -26.93243408 47.18023682 C-21.45763971 37.60193557 -16.04826443 27.98815419 -10.69116211 18.34350586 C-7.24494007 12.15498212 -3.68369685 6.05025311 0 0 Z " fill="#94A3B5" transform="translate(255,169)"/>
<path d="M0 0 C1.16801147 -0.01260864 2.33602295 -0.02521729 3.53942871 -0.03820801 C4.79678833 -0.03011108 6.05414795 -0.02201416 7.34960938 -0.01367188 C8.64402954 -0.01749878 9.93844971 -0.02132568 11.27209473 -0.02526855 C14.00922783 -0.03115875 16.74583796 -0.02261726 19.48291016 -0.00390625 C22.98707964 0.01888443 26.49002371 0.00575858 29.99414825 -0.01819611 C33.34189958 -0.03614642 36.68932325 -0.02356948 40.03710938 -0.01367188 C41.29446899 -0.0217688 42.55182861 -0.02986572 43.84729004 -0.03820801 C45.59930725 -0.01929504 45.59930725 -0.01929504 47.38671875 0 C48.41390015 0.00318237 49.44108154 0.00636475 50.49938965 0.00964355 C53.19335938 0.51757812 53.19335938 0.51757812 55.52392578 1.95178223 C58.07408673 5.87119089 57.75152156 9.50461789 57.7109375 14.08789062 C57.71794678 15.05740662 57.72495605 16.02692261 57.73217773 17.02581787 C57.74978792 20.23169567 57.73812389 23.43669129 57.72460938 26.64257812 C57.72730341 28.86930511 57.73118509 31.09603095 57.73620605 33.32275391 C57.74210522 37.99002277 57.73352441 42.65698547 57.71484375 47.32421875 C57.6920543 53.31011321 57.70517509 59.29529031 57.72913361 65.28115845 C57.74358008 69.87936824 57.7389908 74.47740766 57.72862244 79.07562256 C57.72595198 81.28285812 57.72923605 83.4901091 57.73854065 85.69732666 C57.748687 88.78105714 57.73323121 91.86362208 57.7109375 94.94726562 C57.71903442 95.86167419 57.72713135 96.77608276 57.73547363 97.71820068 C57.68408492 101.55042245 57.64531294 103.82295894 55.52392578 107.08337402 C52.61080233 108.87607712 50.80103516 109.02457815 47.38671875 109.03515625 C45.63470154 109.05406921 45.63470154 109.05406921 43.84729004 109.07336426 C42.58993042 109.06526733 41.3325708 109.05717041 40.03710938 109.04882812 C38.74268921 109.05265503 37.44826904 109.05648193 36.11462402 109.0604248 C33.37749092 109.066315 30.64088079 109.05777351 27.90380859 109.0390625 C24.39963911 109.01627182 20.89669504 109.02939767 17.3925705 109.05335236 C14.04481917 109.07130267 10.6973955 109.05872573 7.34960938 109.04882812 C5.46356995 109.06097351 5.46356995 109.06097351 3.53942871 109.07336426 C2.37141724 109.06075562 1.20340576 109.04814697 0 109.03515625 C-1.0271814 109.03197388 -2.05436279 109.0287915 -3.1126709 109.0255127 C-5.80664062 108.51757812 -5.80664062 108.51757812 -8.13720703 107.08337402 C-10.68736798 103.16396536 -10.36480281 99.53053836 -10.32421875 94.94726562 C-10.33122803 93.97774963 -10.3382373 93.00823364 -10.34545898 92.00933838 C-10.36306917 88.80346058 -10.35140514 85.59846496 -10.33789062 82.39257812 C-10.34058466 80.16585114 -10.34446634 77.9391253 -10.3494873 75.71240234 C-10.35538647 71.04513348 -10.34680566 66.37817078 -10.328125 61.7109375 C-10.30533555 55.72504304 -10.31845634 49.73986594 -10.34241486 43.7539978 C-10.35686133 39.15578801 -10.35227205 34.55774859 -10.34190369 29.95953369 C-10.33923323 27.75229813 -10.3425173 25.54504715 -10.3518219 23.33782959 C-10.36196825 20.25409911 -10.34651246 17.17153417 -10.32421875 14.08789062 C-10.33231567 13.17348206 -10.3404126 12.25907349 -10.34875488 11.31695557 C-10.29736617 7.4847338 -10.25859419 5.21219731 -8.13720703 1.95178223 C-5.22408358 0.15907913 -3.41431641 0.0105781 0 0 Z " fill="#163E58" transform="translate(338.806640625,328.482421875)"/>
<path d="M0 0 C1.16801147 -0.01260864 2.33602295 -0.02521729 3.53942871 -0.03820801 C4.79678833 -0.03011108 6.05414795 -0.02201416 7.34960938 -0.01367188 C8.64402954 -0.01749878 9.93844971 -0.02132568 11.27209473 -0.02526855 C14.00922783 -0.03115875 16.74583796 -0.02261726 19.48291016 -0.00390625 C22.98707964 0.01888443 26.49002371 0.00575858 29.99414825 -0.01819611 C33.34189958 -0.03614642 36.68932325 -0.02356948 40.03710938 -0.01367188 C41.29446899 -0.0217688 42.55182861 -0.02986572 43.84729004 -0.03820801 C45.59930725 -0.01929504 45.59930725 -0.01929504 47.38671875 0 C48.41390015 0.00318237 49.44108154 0.00636475 50.49938965 0.00964355 C53.19335938 0.51757812 53.19335938 0.51757812 55.52392578 1.95178223 C58.07408673 5.87119089 57.75152156 9.50461789 57.7109375 14.08789062 C57.71794678 15.05740662 57.72495605 16.02692261 57.73217773 17.02581787 C57.74978792 20.23169567 57.73812389 23.43669129 57.72460938 26.64257812 C57.72730341 28.86930511 57.73118509 31.09603095 57.73620605 33.32275391 C57.74210522 37.99002277 57.73352441 42.65698547 57.71484375 47.32421875 C57.6920543 53.31011321 57.70517509 59.29529031 57.72913361 65.28115845 C57.74358008 69.87936824 57.7389908 74.47740766 57.72862244 79.07562256 C57.72595198 81.28285812 57.72923605 83.4901091 57.73854065 85.69732666 C57.748687 88.78105714 57.73323121 91.86362208 57.7109375 94.94726562 C57.71903442 95.86167419 57.72713135 96.77608276 57.73547363 97.71820068 C57.68408492 101.55042245 57.64531294 103.82295894 55.52392578 107.08337402 C52.61080233 108.87607712 50.80103516 109.02457815 47.38671875 109.03515625 C45.63470154 109.05406921 45.63470154 109.05406921 43.84729004 109.07336426 C42.58993042 109.06526733 41.3325708 109.05717041 40.03710938 109.04882812 C38.74268921 109.05265503 37.44826904 109.05648193 36.11462402 109.0604248 C33.37749092 109.066315 30.64088079 109.05777351 27.90380859 109.0390625 C24.39963911 109.01627182 20.89669504 109.02939767 17.3925705 109.05335236 C14.04481917 109.07130267 10.6973955 109.05872573 7.34960938 109.04882812 C5.46356995 109.06097351 5.46356995 109.06097351 3.53942871 109.07336426 C2.37141724 109.06075562 1.20340576 109.04814697 0 109.03515625 C-1.0271814 109.03197388 -2.05436279 109.0287915 -3.1126709 109.0255127 C-5.80664062 108.51757812 -5.80664062 108.51757812 -8.13720703 107.08337402 C-10.68736798 103.16396536 -10.36480281 99.53053836 -10.32421875 94.94726562 C-10.33122803 93.97774963 -10.3382373 93.00823364 -10.34545898 92.00933838 C-10.36306917 88.80346058 -10.35140514 85.59846496 -10.33789062 82.39257812 C-10.34058466 80.16585114 -10.34446634 77.9391253 -10.3494873 75.71240234 C-10.35538647 71.04513348 -10.34680566 66.37817078 -10.328125 61.7109375 C-10.30533555 55.72504304 -10.31845634 49.73986594 -10.34241486 43.7539978 C-10.35686133 39.15578801 -10.35227205 34.55774859 -10.34190369 29.95953369 C-10.33923323 27.75229813 -10.3425173 25.54504715 -10.3518219 23.33782959 C-10.36196825 20.25409911 -10.34651246 17.17153417 -10.32421875 14.08789062 C-10.33231567 13.17348206 -10.3404126 12.25907349 -10.34875488 11.31695557 C-10.29736617 7.4847338 -10.25859419 5.21219731 -8.13720703 1.95178223 C-5.22408358 0.15907913 -3.41431641 0.0105781 0 0 Z " fill="#163E58" transform="translate(125.806640625,328.482421875)"/>
<path d="M0 0 C123.42 0 246.84 0 374 0 C374 5.94 374 11.88 374 18 C250.58 18 127.16 18 0 18 C0 12.06 0 6.12 0 0 Z " fill="#95A4B6" transform="translate(69,482)"/>
<path d="M0 0 C42.9 0 85.8 0 130 0 C131.69880437 5.09641312 132.4618756 8.79813078 133 14 C132.24244919 14.00586624 131.48489838 14.01173248 130.70439148 14.01777649 C123.5677729 14.07566238 116.4315051 14.1477147 109.29519939 14.23571491 C105.62626526 14.28045714 101.95744315 14.31970434 98.28833008 14.34643555 C94.74789938 14.37243074 91.20789888 14.41280517 87.66773415 14.46318626 C85.65868965 14.48800978 83.64947883 14.49790981 81.64030457 14.50764465 C80.41926529 14.52743881 79.19822601 14.54723297 77.94018555 14.56762695 C76.86318893 14.57873001 75.78619232 14.58983307 74.67655945 14.60127258 C71.98804096 14.79621109 71.98804096 14.79621109 70.11701965 16.33171082 C68.68966511 18.09954048 68.68966511 18.09954048 69.1875 21.125 C69.5896875 22.548125 69.5896875 22.548125 70 24 C72.73364147 25.36682074 74.95037479 25.16265463 78.01025391 25.20532227 C79.27141022 25.22526749 80.53256653 25.24521271 81.8319397 25.26576233 C83.21347937 25.28274665 84.59502034 25.29962546 85.9765625 25.31640625 C87.38618582 25.3369756 88.79580297 25.35797207 90.20541382 25.37937927 C93.91747035 25.43460195 97.62958257 25.48401031 101.34173584 25.53222656 C105.12891603 25.58244018 108.91601526 25.63812697 112.703125 25.69335938 C120.13534812 25.80094333 127.56763852 25.90238773 135 26 C136.91626837 30.98229776 137.5547115 35.72684667 138 41 C136.43145515 41.00879936 136.43145515 41.00879936 134.83122253 41.01777649 C124.98690428 41.07493582 115.14280838 41.14766161 105.29871655 41.23571491 C100.23749056 41.28048383 95.17634629 41.31972547 90.11499023 41.34643555 C85.23246464 41.37240359 80.35025242 41.41275955 75.4679203 41.46318626 C73.60320235 41.47989908 71.73843014 41.49138578 69.87364769 41.49761391 C67.26593377 41.50720719 64.65902958 41.53520819 62.05151367 41.56762695 C61.27683746 41.56619186 60.50216125 41.56475677 59.70401001 41.5632782 C55.6164275 41.63232746 55.6164275 41.63232746 51.98506165 43.33171082 C50.71536989 45.1269725 50.71536989 45.1269725 51.1875 48.125 C51.455625 49.07375 51.72375 50.0225 52 51 C55.18113298 52.59056649 58.62594262 52.18007797 62.12158203 52.20532227 C63.38023071 52.22017166 63.38023071 52.22017166 64.66430664 52.23532104 C67.44544629 52.26697792 70.22660304 52.29171 73.0078125 52.31640625 C74.93309988 52.33697216 76.85838271 52.35796854 78.78366089 52.37937927 C83.85695718 52.43463741 88.93029447 52.48403017 94.00366211 52.53222656 C99.17825988 52.58241429 104.35279794 52.63811458 109.52734375 52.69335938 C119.68484485 52.8009867 129.84239774 52.9024215 140 53 C141.76615118 57.70973649 142.48594831 62.03083364 143 67 C129.41362226 67.20852894 115.82762512 67.36844482 102.23997307 67.46630955 C95.93056596 67.51328051 89.62225356 67.57698824 83.31347656 67.67895508 C77.22499974 67.77674542 71.1375757 67.83055832 65.04837418 67.85389519 C62.72539822 67.87052521 60.40247994 67.90300141 58.07995224 67.95157051 C54.82531034 68.01692518 51.5750167 68.02590227 48.31982422 68.02172852 C47.35956833 68.054086 46.39931244 68.08644348 45.40995789 68.11978149 C42.66043766 68.08163447 40.58315536 67.95164942 38 67 C35.37703677 64.28992859 33.6865429 61.35309979 32 58 C31.4745459 57.10635742 30.9490918 56.21271484 30.40771484 55.29199219 C30.01277832 54.55110352 29.6178418 53.81021484 29.2109375 53.046875 C28.75041992 52.1909375 28.28990234 51.335 27.81542969 50.453125 C27.34008789 49.56109375 26.86474609 48.6690625 26.375 47.75 C22.25789007 40.11246275 18.06802142 32.52589123 13.75 25 C13.00580811 23.70255859 13.00580811 23.70255859 12.24658203 22.37890625 C10.4005989 19.16550542 8.55041146 15.95454239 6.69921875 12.74414062 C5.90580526 11.36763119 5.11310769 9.99070873 4.32128906 8.61328125 C3.32566572 6.88160456 2.32701903 5.1516671 1.328125 3.421875 C0 1 0 1 0 0 Z " fill="#94A3B5" transform="translate(298,217)"/>
<path d="M0 0 C1.43661437 0.00138269 1.43661437 0.00138269 2.90225124 0.00279331 C3.99746593 0.00141865 5.09268063 0.00004398 6.22108364 -0.00137234 C7.43308437 0.00222294 8.64508511 0.00581821 9.89381313 0.00952244 C11.16192333 0.00937641 12.43003353 0.00923038 13.73657131 0.00907993 C17.22401821 0.00879198 20.711431 0.01468838 24.19886994 0.02165389 C27.83973123 0.02788776 31.48059321 0.02849125 35.12145901 0.0296793 C42.02046371 0.03279252 48.91945264 0.04100578 55.81845039 0.05102879 C63.67080084 0.06219022 71.52315203 0.06770045 79.37550843 0.07272422 C95.53257953 0.0831884 111.68963475 0.10078766 127.84669399 0.12304783 C126.90547585 2.02047584 125.96250485 3.9170344 125.01881313 5.81323338 C124.49388775 6.86947407 123.96896236 7.92571476 123.42813015 9.01396275 C121.1927652 13.40866422 118.76047018 17.67338972 116.28419399 21.93554783 C115.2380273 23.75030983 114.19247776 25.56542771 113.14747524 27.38086033 C112.34044155 28.7812656 112.34044155 28.7812656 111.51710415 30.20996189 C108.10355595 36.16296643 104.74709975 42.14852527 101.38746548 48.13208103 C91.77781544 65.19192638 91.77781544 65.19192638 89.84669399 67.12304783 C88.48061073 67.21839996 87.10963944 67.24493453 85.74023342 67.24330235 C84.85537258 67.24467701 83.97051174 67.24605167 83.05883694 67.24746799 C81.59148853 67.24207508 81.59148853 67.24207508 80.09449673 67.23657322 C79.07022579 67.23671925 78.04595486 67.23686527 76.99064541 67.23701572 C73.5871717 67.23631611 70.18375195 67.22852146 66.78028774 67.22070408 C64.42759131 67.21884007 62.07489449 67.21741609 59.72219753 67.21641636 C53.51612694 67.21258982 47.31007959 67.20275838 41.10401821 67.19171238 C34.77671021 67.18150117 28.44939847 67.17691936 22.12208462 67.17187595 C9.69694418 67.16113623 -2.72817899 67.14405819 -15.15330601 67.12304783 C-14.8458023 64.97649282 -14.53216941 62.83081498 -14.21580601 60.68554783 C-14.04178257 59.49058689 -13.86775913 58.29562595 -13.68846226 57.06445408 C-13.15330601 54.12304783 -13.15330601 54.12304783 -12.15330601 53.12304783 C-9.49178681 53.01387203 -6.85526289 52.96881993 -4.19285679 52.96533298 C-3.35872257 52.96025227 -2.52458836 52.95517155 -1.66517735 52.94993687 C0.15239684 52.93920932 1.96998443 52.93059856 3.78757763 52.92381763 C6.66177528 52.91206784 9.53581998 52.89262553 12.40995693 52.87069798 C20.58396749 52.8089484 28.75796353 52.75500062 36.93214321 52.72168064 C41.92602291 52.70077211 46.91962613 52.66549806 51.9133482 52.62092304 C53.81993899 52.60673018 55.72657873 52.59803323 57.63321972 52.59486866 C60.2982606 52.58997731 62.9625639 52.56686547 65.62745571 52.53955173 C66.81516567 52.54406094 66.81516567 52.54406094 68.02686977 52.54866123 C72.17739077 52.49614828 72.17739077 52.49614828 75.87211514 50.79232883 C77.12906106 48.99403198 77.12906106 48.99403198 76.65919399 45.99804783 C76.25700649 44.57492283 76.25700649 44.57492283 75.84669399 43.12304783 C72.71068086 41.55504126 69.35363624 41.94320147 65.90870571 41.91772556 C65.08911373 41.90782597 64.26952175 41.89792637 63.42509365 41.88772678 C60.70888592 41.85607249 57.99266067 41.83133886 55.27638149 41.80664158 C53.3959345 41.78607544 51.51549216 41.76507906 49.63505459 41.74366856 C44.68012669 41.68841273 39.72515682 41.63901895 34.77015591 41.59082127 C29.71620343 41.54063185 24.66231205 41.48493244 19.60841274 41.42968845 C9.687892 41.32206395 -0.23268175 41.22062852 -10.15330601 41.12304783 C-9.7080175 35.8498945 -9.06957438 31.10534559 -7.15330601 26.12304783 C-6.37069904 26.11718159 -5.58809208 26.11131535 -4.78176975 26.10527134 C2.59030022 26.04738942 9.96203046 25.97533931 17.33379745 25.88733292 C21.12380063 25.84258759 24.91369528 25.80334102 28.70387173 25.77661228 C32.36100452 25.75062025 36.01772061 25.71024796 39.67459583 25.65986156 C41.0703981 25.64316488 42.46627248 25.63166804 43.86216068 25.62543392 C45.81586111 25.6158242 47.76943126 25.58608312 49.7229147 25.55542088 C51.39170429 25.53876629 51.39170429 25.53876629 53.09420681 25.52177525 C55.84943822 25.33428796 55.84943822 25.33428796 57.74114895 23.79133701 C59.15489656 22.02107095 59.15489656 22.02107095 58.65919399 18.99804783 C58.25700649 17.57492283 58.25700649 17.57492283 57.84669399 16.12304783 C55.15771933 14.77856049 53.0307775 14.96109018 50.02003384 14.91772556 C48.79891903 14.89778034 47.57780422 14.87783512 46.31968594 14.8572855 C44.98233576 14.84030127 43.64498424 14.82342246 42.30763149 14.80664158 C40.94284847 14.7860718 39.57807181 14.76507532 38.21330166 14.74366856 C34.61961426 14.68845023 31.0258694 14.63903996 27.43208218 14.59082127 C23.76554653 14.54060446 20.09909443 14.48491934 16.43263149 14.42968845 C9.23738973 14.32210983 2.04207853 14.22066426 -5.15330601 14.12304783 C-4.8458023 11.97649282 -4.53216941 9.83081498 -4.21580601 7.68554783 C-4.04178257 6.49058689 -3.86775913 5.29562595 -3.68846226 4.06445408 C-2.97996155 0.17028597 -2.97996155 0.17028597 0 0 Z " fill="#94A3B5" transform="translate(86.15330600738525,216.87695217132568)"/>
<path d="M0 0 C1.46397217 0.30599121 1.46397217 0.30599121 2.95751953 0.61816406 C45.35609662 9.58747044 89.70135057 30.0386387 118.86328125 63.11328125 C120.70936597 66.17740126 119.80563799 68.65350375 119 72 C117 74 117 74 114.4375 74.5625 C107.82775545 73.48090544 103.26346754 68.31122657 98.72265625 63.65625 C95.02721594 59.93105974 91.05815218 56.72146141 86.875 53.5625 C86.12637695 52.99611816 85.37775391 52.42973633 84.60644531 51.84619141 C78.30762698 47.13620358 71.8735649 42.83157182 65 39 C64.25298828 38.58008789 63.50597656 38.16017578 62.73632812 37.72753906 C12.48672835 9.74268291 -45.2772437 3.04297887 -100.75 18.1875 C-112.27809027 21.48853447 -123.19643559 25.81700803 -134 31 C-135.22541504 31.58587891 -135.22541504 31.58587891 -136.47558594 32.18359375 C-154.7500537 41.05540062 -171.4656288 52.6849258 -186 66.91015625 C-186.94875 67.82667969 -187.8975 68.74320312 -188.875 69.6875 C-189.69742188 70.51636719 -190.51984375 71.34523438 -191.3671875 72.19921875 C-194.78057324 74.53389357 -196.94664737 74.45037251 -201 74 C-203 72.4375 -203 72.4375 -204 70 C-203.62636283 62.86768158 -201.0773062 60.37345659 -196.05859375 55.66796875 C-163.9900866 27.31452458 -125.77729869 8.7320555 -84 0 C-83.17999512 -0.18079102 -82.35999023 -0.36158203 -81.51513672 -0.54785156 C-56.15189605 -5.96398829 -25.2896691 -5.57575334 0 0 Z " fill="#153D57" transform="translate(298,3)"/>
<path d="M0 0 C1.15822266 0.26538574 1.15822266 0.26538574 2.33984375 0.53613281 C19.581918 4.52939721 35.41017962 10.66669073 51 19 C51.61649414 19.32758301 52.23298828 19.65516602 52.86816406 19.99267578 C68.62816626 28.44546157 83.80129846 39.81318567 96 53 C96.58286119 56.30288006 96.58904434 57.96050999 94.9375 60.875 C91.86510011 62.65897413 89.49095686 62.34469532 86 62 C83.25390625 60.015625 83.25390625 60.015625 80.5625 57.25 C79.5159179 56.22741214 78.46355635 55.21071433 77.40625 54.19921875 C76.57673828 53.40523682 76.57673828 53.40523682 75.73046875 52.59521484 C43.33978638 22.73619698 -2.09201622 8.85517279 -45.56274414 10.08911133 C-86.97627569 11.95200375 -129.12783156 28.74886233 -158 59 C-160.55514145 61.40028439 -161.49296048 61.93662006 -165 62.375 C-168.37504726 61.95311909 -169.77031412 61.57271448 -172 59 C-172.46097541 55.37733453 -172.44587467 53.62771756 -170.3046875 50.61328125 C-153.86796867 35.04860699 -135.55169294 22.50643141 -115 13 C-113.31197266 12.20142578 -113.31197266 12.20142578 -111.58984375 11.38671875 C-78.01511842 -3.81026219 -36.05084932 -8.74216187 0 0 Z " fill="#153D57" transform="translate(294,43)"/>
<path d="M0 0 C7.61182781 5.61735219 12.5858371 12.11714162 14.48046875 21.48828125 C15.5478479 31.00357584 14.1100161 39.31377383 8.5625 47.22265625 C1.91488321 55.17626501 -5.48800009 59.51391872 -15.7734375 60.76171875 C-24.04417711 61.12557531 -31.321717 58.694755 -37.91796875 53.65625 C-42.35100333 49.4786505 -45.26205298 45.12009547 -47.51953125 39.48828125 C-47.93203125 38.58078125 -48.34453125 37.67328125 -48.76953125 36.73828125 C-51.09842983 26.64638741 -49.50709498 18.02696645 -44.1640625 9.265625 C-34.13293485 -5.12218544 -15.24243302 -9.14545981 0 0 Z " fill="#183F59" transform="translate(273.51953125,222.51171875)"/>
<path d="M0 0 C3.53892527 2.98564197 7.00219115 6.04014616 10.39453125 9.19140625 C12.66780765 11.31023961 12.66780765 11.31023961 15.37109375 13.30859375 C17.6484375 15.234375 17.6484375 15.234375 18.6484375 18.234375 C18.6484375 21.234375 18.6484375 21.234375 17.7109375 23.609375 C15.18118987 25.6025095 13.14494027 26.1044295 9.9296875 25.9296875 C5.93880004 24.71328687 3.46510945 21.79006484 0.5234375 18.93359375 C-23.67283959 -3.7832914 -57.92746864 -15.72427098 -90.93945312 -14.68408203 C-125.4258831 -12.98711098 -156.88634661 0.32078079 -181.2890625 24.87109375 C-184.1133052 26.73787538 -186.03548147 26.62266443 -189.3515625 26.234375 C-192.26307621 23.69613228 -193.26567759 22.22205142 -193.6015625 18.359375 C-191.71158278 13.63442569 -188.24487291 11.36898902 -184.3515625 8.234375 C-182.99419078 6.96696554 -181.64011554 5.696018 -180.2890625 4.421875 C-165.1205236 -8.96364996 -145.89316162 -18.68555085 -126.3515625 -23.765625 C-125.24361328 -24.05759766 -125.24361328 -24.05759766 -124.11328125 -24.35546875 C-82.36833965 -34.80878473 -34.06634501 -26.90954984 0 0 Z " fill="#153D57" transform="translate(343.3515625,107.765625)"/>
<path d="M0 0 C12.21 0 24.42 0 37 0 C37 26.73 37 53.46 37 81 C24.79 81 12.58 81 0 81 C0 54.27 0 27.54 0 0 Z " fill="#94A3B5" transform="translate(262,389)"/>
<path d="M0 0 C12.21 0 24.42 0 37 0 C37 26.73 37 53.46 37 81 C24.79 81 12.58 81 0 81 C0 54.27 0 27.54 0 0 Z " fill="#94A3B5" transform="translate(213,389)"/>
<path d="M0 0 C10.09183532 7.73078979 10.09183532 7.73078979 12.53076172 12.60864258 C13.09467149 17.90939446 13.09467149 17.90939446 10.96826172 20.54614258 C8.33475574 21.69408108 6.41215314 22.05135583 3.56982422 21.50708008 C-0.18613813 19.85215414 -2.87256647 16.81311113 -5.81689453 14.01489258 C-22.00944963 -0.6752605 -45.91707285 -8.19256374 -67.56640625 -7.30541992 C-92.43494219 -5.81188012 -113.84319695 3.98260124 -131.46923828 21.60864258 C-137.67726748 22.06849659 -137.67726748 22.06849659 -140.40673828 20.48364258 C-142.10186094 17.49224966 -142.11331017 16.02222359 -141.46923828 12.60864258 C-131.14005712 -4.04452705 -107.67706936 -13.82564752 -89.46923828 -18.39135742 C-88.74567139 -18.574646 -88.02210449 -18.75793457 -87.27661133 -18.94677734 C-57.03086846 -25.8713221 -24.73380023 -18.21843536 0 0 Z " fill="#153D57" transform="translate(320.46923828125,140.391357421875)"/>
<path d="M0 0 C5.23724692 2.96387807 8.8638854 7.84165621 10.75 13.5 C11.52017042 20.49466251 10.79383298 26.61397644 6.75 32.5 C1.83846795 37.29075667 -2.64457029 39.57823172 -9.5 39.8125 C-15.17767612 39.72845545 -19.57184783 37.91985323 -23.7890625 34.109375 C-28.66005245 28.69716394 -29.74547125 23.08243629 -29.5546875 16.0234375 C-28.93742425 10.91123157 -27.09534151 7.204249 -23.30859375 3.70703125 C-16.29751793 -1.72881206 -8.46346013 -3.7017446 0 0 Z " fill="#D5D5D5" transform="translate(265.25,231.5)"/>
<path d="M0 0 C0.82293045 -0.00852997 1.6458609 -0.01705994 2.49372864 -0.02584839 C3.84268219 -0.02448883 3.84268219 -0.02448883 5.21888733 -0.02310181 C6.16875015 -0.02981903 7.11861298 -0.03653625 8.09725952 -0.04345703 C11.24340517 -0.06248595 14.38933808 -0.06636358 17.53553772 -0.06851196 C19.71885263 -0.07493603 21.90216666 -0.0816641 24.08547974 -0.08868408 C28.66447445 -0.10066878 33.24339365 -0.10436363 37.82240295 -0.10317993 C43.69505615 -0.10297657 49.56722634 -0.13029107 55.43976498 -0.16472435 C59.94958733 -0.18694065 64.45929242 -0.19101911 68.96916389 -0.18996048 C71.13454924 -0.19232392 73.29993747 -0.20118898 75.46526909 -0.21662521 C78.49156094 -0.23618016 81.51679792 -0.23048847 84.54310608 -0.21841431 C85.44038422 -0.22965332 86.33766235 -0.24089233 87.26213074 -0.25247192 C93.29806469 -0.19115155 93.29806469 -0.19115155 96.53726196 2.10247803 C97.94569397 4.26742554 97.94569397 4.26742554 97.88319397 7.39242554 C96.94569397 10.26742554 96.94569397 10.26742554 93.94569397 12.26742554 C92.05722141 12.52469444 92.05722141 12.52469444 89.89138794 12.53485107 C89.06845749 12.54338104 88.24552704 12.55191101 87.3976593 12.56069946 C86.04870575 12.5593399 86.04870575 12.5593399 84.67250061 12.55795288 C83.24770638 12.56802872 83.24770638 12.56802872 81.79412842 12.57830811 C78.64798277 12.59733702 75.50204986 12.60121465 72.35585022 12.60336304 C70.17253531 12.60978711 67.98922128 12.61651517 65.8059082 12.62353516 C61.22691349 12.63551986 56.64799429 12.63921471 52.06898499 12.63803101 C46.19633178 12.63782765 40.3241616 12.66514214 34.45162296 12.69957542 C29.94180061 12.72179172 25.43209552 12.72587018 20.92222404 12.72481155 C18.75683869 12.72717499 16.59145047 12.73604005 14.42611885 12.75147629 C11.399827 12.77103124 8.37459002 12.76533955 5.34828186 12.75326538 C4.45100372 12.76450439 3.55372559 12.77574341 2.6292572 12.787323 C-3.40667676 12.72600263 -3.40667676 12.72600263 -6.64587402 10.43237305 C-8.05430603 8.26742554 -8.05430603 8.26742554 -7.99180603 5.14242554 C-6.56870226 0.77824063 -4.2714624 0.02003093 0 0 Z " fill="#163E58" transform="translate(211.05430603027344,322.7325744628906)"/>
<path d="M0 0 C34.98 0 69.96 0 106 0 C106 3.3 106 6.6 106 10 C71.02 10 36.04 10 0 10 C0 6.7 0 3.4 0 0 Z " fill="#95A4B6" transform="translate(203,367)"/>
<path d="M0 0 C0.67676285 -0.00671722 1.3535257 -0.01343445 2.05079651 -0.02035522 C4.28792665 -0.03935286 6.52475711 -0.04326012 8.76196289 -0.04541016 C10.31751123 -0.05183645 11.87305834 -0.05856468 13.42860413 -0.06558228 C16.68941043 -0.07755913 19.95011075 -0.08126264 23.2109375 -0.08007812 C27.38871518 -0.07987481 31.56581353 -0.10718712 35.74343014 -0.14162254 C38.95621358 -0.16386222 42.16883271 -0.16791659 45.38168526 -0.16685867 C46.92187404 -0.16921867 48.46206709 -0.17806471 50.0021801 -0.19352341 C52.1568852 -0.21312725 54.31011475 -0.20736948 56.46484375 -0.1953125 C58.30326088 -0.19958755 58.30326088 -0.19958755 60.17881775 -0.20394897 C63.29711914 0.29052734 63.29711914 0.29052734 65.7280426 2.12557983 C67.29711914 4.29052734 67.29711914 4.29052734 67.23461914 7.41552734 C66.29711914 10.29052734 66.29711914 10.29052734 63.29711914 12.29052734 C60.30580139 12.55795288 60.30580139 12.55795288 56.59423828 12.58105469 C55.91747543 12.58777191 55.24071259 12.59448914 54.54344177 12.60140991 C52.30631164 12.62040755 50.06948117 12.62431481 47.83227539 12.62646484 C46.27672705 12.63289114 44.72117994 12.63961937 43.16563416 12.64663696 C39.90482785 12.65861382 36.64412753 12.66231733 33.38330078 12.66113281 C29.2055231 12.6609295 25.02842475 12.68824181 20.85080814 12.72267723 C17.6380247 12.74491691 14.42540557 12.74897128 11.21255302 12.74791336 C9.67236424 12.75027336 8.1321712 12.75911939 6.59205818 12.77457809 C4.43735309 12.79418194 2.28412353 12.78842417 0.12939453 12.77636719 C-1.7090226 12.78064224 -1.7090226 12.78064224 -3.58457947 12.78500366 C-6.70288086 12.29052734 -6.70288086 12.29052734 -9.13380432 10.45547485 C-10.70288086 8.29052734 -10.70288086 8.29052734 -10.64038086 5.16552734 C-8.83248333 -0.37869174 -5.15184293 0.03206651 0 0 Z " fill="#163E58" transform="translate(227.702880859375,294.70947265625)"/>
<path d="M0 0 C5.28 0 10.56 0 16 0 C16 11.88 16 23.76 16 36 C10.72 36 5.44 36 0 36 C0 24.12 0 12.24 0 0 Z " fill="#D7D7D7" transform="translate(368,389)"/>
<path d="M0 0 C5.28 0 10.56 0 16 0 C16 11.88 16 23.76 16 36 C10.72 36 5.44 36 0 36 C0 24.12 0 12.24 0 0 Z " fill="#D7D7D7" transform="translate(128,389)"/>
<path d="M0 0 C5.28 0 10.56 0 16 0 C16 11.88 16 23.76 16 36 C10.72 36 5.44 36 0 36 C0 24.12 0 12.24 0 0 Z " fill="#D7D7D7" transform="translate(368,341)"/>
<path d="M0 0 C5.28 0 10.56 0 16 0 C16 11.88 16 23.76 16 36 C10.72 36 5.44 36 0 36 C0 24.12 0 12.24 0 0 Z " fill="#D7D7D7" transform="translate(128,341)"/>
<path d="M0 0 C4.95 0 9.9 0 15 0 C15 11.88 15 23.76 15 36 C10.05 36 5.1 36 0 36 C0 24.12 0 12.24 0 0 Z " fill="#D7D7D7" transform="translate(341,389)"/>
<path d="M0 0 C4.95 0 9.9 0 15 0 C15 11.88 15 23.76 15 36 C10.05 36 5.1 36 0 36 C0 24.12 0 12.24 0 0 Z " fill="#D7D7D7" transform="translate(156,389)"/>
<path d="M0 0 C4.95 0 9.9 0 15 0 C15 11.88 15 23.76 15 36 C10.05 36 5.1 36 0 36 C0 24.12 0 12.24 0 0 Z " fill="#D7D7D7" transform="translate(341,341)"/>
<path d="M0 0 C4.95 0 9.9 0 15 0 C15 11.88 15 23.76 15 36 C10.05 36 5.1 36 0 36 C0 24.12 0 12.24 0 0 Z " fill="#D7D7D7" transform="translate(156,341)"/>
<path d="M0 0 C2.875 0.9375 2.875 0.9375 4.875 3.9375 C5.32835153 7.23477519 5.24529343 10.5498091 5.25 13.875 C5.27449219 14.78185547 5.29898437 15.68871094 5.32421875 16.62304688 C5.35346985 23.24842162 5.35346985 23.24842162 3.046875 26.5703125 C0.875 27.9375 0.875 27.9375 -2.25 27.875 C-5.125 26.9375 -5.125 26.9375 -7.125 23.9375 C-7.57835153 20.64022481 -7.49529343 17.3251909 -7.5 14 C-7.52449219 13.09314453 -7.54898437 12.18628906 -7.57421875 11.25195312 C-7.60346985 4.62657838 -7.60346985 4.62657838 -5.296875 1.3046875 C-3.125 -0.0625 -3.125 -0.0625 0 0 Z " fill="#173F59" transform="translate(273.125,419.0625)"/>
<path d="M0 0 C2.875 0.9375 2.875 0.9375 4.875 3.9375 C5.32835153 7.23477519 5.24529343 10.5498091 5.25 13.875 C5.27449219 14.78185547 5.29898438 15.68871094 5.32421875 16.62304688 C5.35346985 23.24842162 5.35346985 23.24842162 3.046875 26.5703125 C0.875 27.9375 0.875 27.9375 -2.25 27.875 C-5.125 26.9375 -5.125 26.9375 -7.125 23.9375 C-7.57835153 20.64022481 -7.49529343 17.3251909 -7.5 14 C-7.52449219 13.09314453 -7.54898438 12.18628906 -7.57421875 11.25195312 C-7.60346985 4.62657838 -7.60346985 4.62657838 -5.296875 1.3046875 C-3.125 -0.0625 -3.125 -0.0625 0 0 Z " fill="#173F59" transform="translate(241.125,419.0625)"/>
</svg>
