<?xml version="1.0" encoding="UTF-8"?>
<svg version="1.1" xmlns="http://www.w3.org/2000/svg" width="512" height="512">
<path d="M0 0 C3.95889696 3.03845342 7.69411665 6.27306003 11.41259766 9.59814453 C13.76298535 11.6738022 16.19062484 13.64902358 18.625 15.625 C19.51703125 16.35203125 20.4090625 17.0790625 21.328125 17.828125 C22.20984375 18.54484375 23.0915625 19.2615625 24 20 C30.44373941 25.23789344 36.83016662 30.5338025 43.15917969 35.90917969 C48.38447188 40.3405996 53.68355885 44.67844842 59 49 C64.82281111 53.73316225 70.60470548 58.50416573 76.3125 63.375 C80.74861488 67.1578153 85.26600025 70.80532258 89.875 74.375 C95.61865365 78.82926201 101.1273402 83.50929095 106.59619141 88.29541016 C111.96410722 92.9900572 117.45262615 97.51878809 123 102 C128.82435946 106.73122455 134.60474156 111.50419652 140.3125 116.375 C144.74861956 120.15781929 149.26605845 123.80524066 153.875 127.375 C172.64639519 141.93727693 172.64639519 141.93727693 179 149 C179.01171875 151.015625 179.01171875 151.015625 178.6875 153.25 C178.59395648 156.25323946 178.76347391 157.63641443 180.41796875 160.1796875 C183.26792281 163.01257596 185.41627025 164.95870643 189.546875 165.06640625 C192.11012388 164.73612323 192.11012388 164.73612323 194.5078125 164.07421875 C200.37602188 163.89946016 205.51727826 170.03560682 209.75 173.75 C213.89882857 177.35189274 218.06479601 180.90303524 222.375 184.3125 C223.16003906 184.94027344 223.94507813 185.56804687 224.75390625 186.21484375 C226.2297635 187.38782943 227.71655568 188.54721095 229.21484375 189.69140625 C235.05582395 194.37941829 239.27159016 199.47423518 240.28258634 207.14371848 C240.76875178 213.70692057 240.66965218 220.28550669 240.63110352 226.86206055 C240.63624621 229.08860849 240.64353012 231.31515237 240.65278625 233.54168701 C240.67126031 239.56838629 240.65838783 245.59464173 240.63869596 251.62132239 C240.62228147 257.9347939 240.63112597 264.24823792 240.63621521 270.5617218 C240.64073202 281.15946169 240.6249943 291.75704502 240.59692383 302.35473633 C240.56806924 313.24869116 240.56101454 324.14239437 240.57641602 335.03637695 C240.59497868 348.18427377 240.59323389 361.3320216 240.57420158 374.47992897 C240.56733229 379.49534017 240.56836228 384.51065786 240.57574654 389.52606773 C240.58340932 395.43020396 240.57128295 401.33397792 240.54389763 407.23805237 C240.53701367 409.4039992 240.53691591 411.56997986 240.54411316 413.73592567 C240.5528086 416.69359145 240.53684977 419.65013941 240.5146637 422.60771179 C240.52290446 423.46374597 240.53114523 424.31978014 240.53963572 425.20175475 C240.4631375 430.73086748 239.61129489 434.71709747 236 439 C230.69673163 443.35319866 226.17705857 444.73338412 219.41668701 444.6292057 C218.58592667 444.63647291 217.75516633 444.64374011 216.89923143 444.65122753 C214.1208321 444.66944711 211.34381849 444.65213683 208.56542969 444.63491821 C206.55131704 444.6406806 204.53720965 444.6486225 202.52311325 444.65855443 C196.99252178 444.67943466 191.46236148 444.669107 185.93176842 444.65362334 C179.96575366 444.6423187 173.99981346 444.65976818 168.03381348 444.67352295 C157.02341887 444.6944835 146.01315248 444.69265006 135.0027529 444.67896561 C124.83104417 444.66638567 114.65938581 444.66310532 104.4876709 444.66907883 C103.81284458 444.66946075 103.13801827 444.66984268 102.44274268 444.67023618 C99.7033728 444.67179288 96.96400296 444.67338488 94.22463314 444.675035 C68.52949383 444.69032853 42.83444206 444.67646505 17.13931626 444.64955051 C-5.68711731 444.62582261 -28.5134114 444.62794576 -51.33984375 444.65185547 C-76.98810847 444.67863115 -102.63629585 444.6892439 -128.2845726 444.67379415 C-131.01893868 444.67219057 -133.75330478 444.67062637 -136.4876709 444.66907883 C-137.16093695 444.66868344 -137.83420299 444.66828805 -138.52787104 444.66788069 C-148.69295901 444.66219435 -158.85799106 444.66884276 -169.02307129 444.68147659 C-180.58175686 444.6957709 -192.14028574 444.69172169 -203.69895267 444.66507287 C-209.59767059 444.65192196 -215.49610528 444.64680437 -221.39482117 444.66331863 C-226.79341957 444.67820429 -232.19147188 444.67005225 -237.59002066 444.64343087 C-239.54414501 444.63784011 -241.49831539 444.64069962 -243.45241022 444.65280981 C-246.10782596 444.66800549 -248.76136907 444.65243351 -251.41668701 444.6292057 C-252.1763047 444.64091153 -252.93592238 444.65261737 -253.71855879 444.66467792 C-259.4987192 444.56354563 -263.53642564 442.66393412 -268 439 C-272.25836754 433.94968601 -272.57644754 429.02569248 -272.5146637 422.60771179 C-272.52160922 421.68182009 -272.52855475 420.75592839 -272.53571075 419.80197936 C-272.55395821 416.70977983 -272.54372246 413.61834946 -272.53344727 410.52612305 C-272.54050695 408.30488512 -272.54925217 406.08365201 -272.55955505 403.86242676 C-272.58205555 397.8354237 -272.57910726 391.80868318 -272.57023358 385.78165412 C-272.56512223 380.74695232 -272.57241766 375.71229979 -272.57970566 370.67760307 C-272.59767935 358.11805794 -272.59129201 345.55866958 -272.57353585 332.99914078 C-272.55884849 322.10690723 -272.57345547 311.21494977 -272.60230602 300.32275178 C-272.63174618 289.1240404 -272.64215102 277.92542861 -272.63312382 266.72667342 C-272.62819878 260.44530788 -272.63038737 254.16415678 -272.65091133 247.88281822 C-272.66929438 241.97374937 -272.66327695 236.06519233 -272.63871193 230.15615082 C-272.6337121 227.9914583 -272.63717216 225.82672661 -272.64986038 223.66206551 C-272.76923623 201.54024015 -272.76923623 201.54024015 -264.45703125 192.1171875 C-263.14798828 191.00730469 -263.14798828 191.00730469 -261.8125 189.875 C-260.84699219 189.04613281 -259.88148438 188.21726563 -258.88671875 187.36328125 C-255.49505024 184.58661082 -252.09553751 181.82484649 -248.6484375 179.1171875 C-245.62808681 176.70268887 -242.68797801 174.20068364 -239.75 171.6875 C-235.2938507 167.88230057 -230.7583785 164.21185831 -226.125 160.625 C-220.2292134 156.05722062 -214.57208411 151.2528645 -208.97314453 146.32666016 C-200.05713413 138.48843593 -200.05713413 138.48843593 -192 139 C-191.01 139.33 -190.02 139.66 -189 140 C-186.63943595 138.56989721 -186.63943595 138.56989721 -184.3125 136.5625 C-183.50425781 135.90378906 -182.69601563 135.24507812 -181.86328125 134.56640625 C-181.24839844 134.04949219 -180.63351563 133.53257812 -180 133 C-180.226875 131.948125 -180.45375 130.89625 -180.6875 129.8125 C-181.05462544 125.33356967 -180.61228294 124.53855059 -178 121 C-175.75420263 118.76374516 -173.36362005 116.72476875 -170.9375 114.6875 C-170.26283691 114.11209473 -169.58817383 113.53668945 -168.89306641 112.94384766 C-164.49927766 109.21295566 -160.03718936 105.57692133 -155.5078125 102.01171875 C-152.53759684 99.62906911 -149.64399151 97.16142373 -146.75 94.6875 C-142.29370153 90.88244609 -137.75820777 87.21210462 -133.125 83.625 C-127.38126264 79.17085333 -121.87265247 74.49070264 -116.40380859 69.70458984 C-111.03589278 65.0099428 -105.54737385 60.48121191 -100 56 C-94.17564054 51.26877545 -88.39525844 46.49580348 -82.6875 41.625 C-78.25138512 37.8421847 -73.73399975 34.19467742 -69.125 30.625 C-64.05096766 26.69003615 -59.14742597 22.60011548 -54.3125 18.375 C-19.65234898 -11.87329417 -19.65234898 -11.87329417 0 0 Z " fill="#C0B354" transform="translate(272,36)"/>
<path d="M0 0 C2.64701022 1.32350511 3.04357118 2.20428498 4 5 C4.21726595 8.76594313 3.8454925 11.0432071 1.30859375 13.9140625 C-1.05963286 16.04080626 -3.50126658 18.02828558 -6 20 C-7.7510189 21.4362587 -9.50098873 22.87379718 -11.25 24.3125 C-12.64025391 25.43978516 -12.64025391 25.43978516 -14.05859375 26.58984375 C-17.17804649 29.14588935 -20.24641088 31.75556773 -23.3125 34.375 C-27.74838833 38.15808683 -32.26614128 41.80515876 -36.875 45.375 C-42.08651118 49.4194149 -47.14106902 53.615659 -52.125 57.9375 C-52.7526123 58.48132324 -53.38022461 59.02514648 -54.02685547 59.58544922 C-59.72614688 64.20823125 -59.72614688 64.20823125 -64 70 C-64.09598833 72.87222518 -64.13009585 75.72013077 -64.12025452 78.59255981 C-64.12153615 79.94269537 -64.12153615 79.94269537 -64.12284368 81.32010639 C-64.12449865 84.35421189 -64.11897682 87.38826283 -64.11352539 90.42236328 C-64.1132435 92.59011839 -64.1134013 94.7578736 -64.1139679 96.92562866 C-64.11425578 102.8261568 -64.10836045 108.72666477 -64.10139394 114.62718821 C-64.09515896 120.78782456 -64.09455649 126.94846132 -64.09336853 133.10910034 C-64.09025564 144.78214104 -64.08204282 156.45517241 -64.07201904 168.12820899 C-64.05877097 183.89704797 -64.05335765 199.66588919 -64.04751682 215.43473244 C-64.0381029 240.28982861 -64.0181837 265.14490511 -64 290 C-26.38 290 11.24 290 50 290 C38.31839204 263.97987491 38.31839204 263.97987491 26.48828125 238.02734375 C24.32617188 233.31835938 24.32617188 233.31835938 23.32397461 231.1315918 C22.62122834 229.60719384 21.91245202 228.08556708 21.19897461 226.56616211 C20.11264511 224.24776159 19.04849917 221.92027705 17.98828125 219.58984375 C17.6677327 218.92025131 17.34718414 218.25065887 17.016922 217.56077576 C14.97033795 212.98560972 14.81885199 209.85009373 16 205 C18.09331062 201.89590076 20.36578673 201.4674173 23.9375 200.75 C39.11020797 197.20908992 53.34782283 191.43517463 67 184 C67.60005859 183.67918457 68.20011719 183.35836914 68.81835938 183.02783203 C86.64508801 173.45835856 102.37405818 160.91675219 117 147 C117.56799316 146.46068848 118.13598633 145.92137695 118.72119141 145.36572266 C126.76165765 137.67629086 134.03082805 129.70619875 140.67333984 120.77978516 C142.01400376 118.98121321 143.37482991 117.19930656 144.73828125 115.41796875 C151.85455367 106.02267801 158.00064698 96.13572287 164 86 C165.18656775 83.99944677 166.37386701 81.99932685 167.5625 80 C167.99691406 79.2575 168.43132812 78.515 168.87890625 77.75 C170 76 170 76 172 74 C177.63994911 73.36323155 177.63994911 73.36323155 180 74 C183.89848561 77.96908193 186.36570759 82.99091802 189.0625 87.8125 C200.96580982 108.6894135 215.40156483 128.08007781 232.8359375 144.6796875 C233.47684326 145.29650391 234.11774902 145.91332031 234.77807617 146.54882812 C236.01981415 147.73642563 237.27466489 148.91051291 238.54418945 150.06835938 C241.58720593 152.97858181 242.8784552 154.55573279 244.01953125 158.7265625 C244 162 244 162 242 165 C239 167 239 167 235.7734375 167.02734375 C230.76972261 165.6650487 228.23399209 163.16588007 224.625 159.5625 C223.96653076 158.9243335 223.30806152 158.28616699 222.62963867 157.62866211 C212.88741367 148.1021056 204.42000247 137.68528233 196 127 C196 179.61281416 247.77716728 245.18871985 282.24609375 280.4765625 C284.0692787 282.06017527 285.8321367 282.96240457 288 284 C288.38542969 282.75347656 288.77085937 281.50695312 289.16796875 280.22265625 C291.10784087 274.41435109 293.69408504 268.96536017 296.3125 263.4375 C301.25353548 252.87564032 306.02063469 242.24810099 310.6875 231.5625 C310.99708649 230.85519745 311.30667297 230.1478949 311.62564087 229.41915894 C315.04758723 221.80136332 315.04758723 221.80136332 318 214 C317.03320312 213.90460938 316.06640625 213.80921875 315.0703125 213.7109375 C310.39919135 213.03426882 306.22998833 211.39562898 301.875 209.625 C301.01044189 209.2748584 300.14588379 208.9247168 299.25512695 208.56396484 C283.69291373 202.1003721 265.10118466 194.10118466 253 182 C252.44760357 175.03980504 252.44760357 175.03980504 254.0625 172 C257.23030601 170.36500335 259.45194566 170.63681334 263 171 C266.34262508 172.52822774 269.3591382 174.5009555 272.4375 176.5 C274.21865195 177.61111435 276.00254233 178.71785024 277.7890625 179.8203125 C278.66981445 180.36461914 279.55056641 180.90892578 280.45800781 181.46972656 C295.43825066 190.48779823 312.28541188 197.43591291 329.2578125 201.546875 C331.99367842 202.21080899 333.83067121 202.85712883 336 204.6875 C337.65612577 208.51729085 336.66601688 212.157465 335.27215576 216.01358032 C334.31782843 218.25766364 333.3076987 220.46739582 332.2734375 222.67578125 C331.6963353 223.93831978 331.6963353 223.93831978 331.10757446 225.22636414 C329.87186958 227.92573646 328.62410251 230.61930484 327.375 233.3125 C318.70960914 252.12155869 310.36137616 271.04754738 302 290 C339.62 290 377.24 290 416 290 C416.11649925 251.04493809 416.11649925 251.04493809 416.1953125 212.08984375 C416.21906593 196.20877201 416.24702098 180.32777846 416.30175781 164.44677734 C416.34159978 152.88177796 416.36742672 141.31684721 416.37635398 129.75178111 C416.38157315 123.62692879 416.39385782 117.50227282 416.42292023 111.37748337 C416.45004739 105.61390357 416.45845034 99.85060123 416.45243073 94.08696365 C416.45353216 91.97056827 416.46150191 89.85416371 416.4768219 87.73782349 C416.49670725 84.8493999 416.4919442 81.96202547 416.48101807 79.07357788 C416.49266943 78.2350463 416.5043208 77.39651473 416.51632524 76.5325731 C416.46189827 71.21374905 415.49117074 68.24207849 412 64 C409.90751979 62.01235125 409.90751979 62.01235125 407.5625 60.3125 C403.4207991 57.12375683 399.40643759 53.83580505 395.4375 50.4375 C390.93305997 46.58977836 386.35906877 42.88477943 381.609375 39.33984375 C380 38 380 38 379 36 C378.98046875 33.90625 378.98046875 33.90625 379.1875 31.5 C379.24292969 30.7059375 379.29835938 29.911875 379.35546875 29.09375 C380 27 380 27 381.61328125 25.65625 C385.06779629 24.70639971 387.53363677 25.16578731 391 26 C393.4921875 27.57421875 393.4921875 27.57421875 395.875 29.6875 C397.27298828 30.89599609 397.27298828 30.89599609 398.69921875 32.12890625 C399.47338135 32.80783936 399.47338135 32.80783936 400.26318359 33.50048828 C403.67710493 36.44795874 407.19419481 39.27255296 410.6875 42.125 C412.78108541 43.83834946 414.86964355 45.55599869 416.94287109 47.29394531 C418.31611207 48.43282592 419.71017831 49.54704469 421.12353516 50.63574219 C427.00927631 55.35040431 431.26488885 60.41504222 432.28212285 68.14340949 C432.76843529 74.7067667 432.66965314 81.28534296 432.63110352 87.86206055 C432.63624621 90.08860849 432.64353012 92.31515237 432.65278625 94.54168701 C432.67126031 100.56838629 432.65838783 106.59464173 432.63869596 112.62132239 C432.62228147 118.9347939 432.63112597 125.24823792 432.63621521 131.5617218 C432.64073202 142.15946169 432.6249943 152.75704502 432.59692383 163.35473633 C432.56806924 174.24869116 432.56101454 185.14239437 432.57641602 196.03637695 C432.59497868 209.18427377 432.59323389 222.3320216 432.57420158 235.47992897 C432.56733229 240.49534017 432.56836228 245.51065786 432.57574654 250.52606773 C432.58340932 256.43020396 432.57128295 262.33397792 432.54389763 268.23805237 C432.53701367 270.4039992 432.53691591 272.56997986 432.54411316 274.73592567 C432.5528086 277.69359145 432.53684977 280.65013941 432.5146637 283.60771179 C432.52290446 284.46374597 432.53114523 285.31978014 432.53963572 286.20175475 C432.4631375 291.73086748 431.61129489 295.71709747 428 300 C422.69673163 304.35319866 418.17705857 305.73338412 411.41668701 305.6292057 C410.58592667 305.63647291 409.75516633 305.64374011 408.89923143 305.65122753 C406.1208321 305.66944711 403.34381849 305.65213683 400.56542969 305.63491821 C398.55131704 305.6406806 396.53720965 305.6486225 394.52311325 305.65855443 C388.99252178 305.67943466 383.46236148 305.669107 377.93176842 305.65362334 C371.96575366 305.6423187 365.99981346 305.65976818 360.03381348 305.67352295 C349.02341887 305.6944835 338.01315248 305.69265006 327.0027529 305.67896561 C316.83104417 305.66638567 306.65938581 305.66310532 296.4876709 305.66907883 C295.81284458 305.66946075 295.13801827 305.66984268 294.44274268 305.67023618 C291.7033728 305.67179288 288.96400296 305.67338488 286.22463314 305.675035 C260.52949383 305.69032853 234.83444206 305.67646505 209.13931626 305.64955051 C186.31288269 305.62582261 163.4865886 305.62794576 140.66015625 305.65185547 C115.01189153 305.67863115 89.36370415 305.6892439 63.7154274 305.67379415 C60.98106132 305.67219057 58.24669522 305.67062637 55.5123291 305.66907883 C54.83906305 305.66868344 54.16579701 305.66828805 53.47212896 305.66788069 C43.30704099 305.66219435 33.14200894 305.66884276 22.97692871 305.68147659 C11.41824314 305.6957709 -0.14028574 305.69172169 -11.69895267 305.66507287 C-17.59767059 305.65192196 -23.49610528 305.64680437 -29.39482117 305.66331863 C-34.79341957 305.67820429 -40.19147188 305.67005225 -45.59002066 305.64343087 C-47.54414501 305.63784011 -49.49831539 305.64069962 -51.45241022 305.65280981 C-54.10782596 305.66800549 -56.76136907 305.65243351 -59.41668701 305.6292057 C-60.1763047 305.64091153 -60.93592238 305.65261737 -61.71855879 305.66467792 C-67.4987192 305.56354563 -71.53642564 303.66393412 -76 300 C-80.25836754 294.94968601 -80.57644754 290.02569248 -80.5146637 283.60771179 C-80.52160922 282.68182009 -80.52855475 281.75592839 -80.53571075 280.80197936 C-80.55395821 277.70977983 -80.54372246 274.61834946 -80.53344727 271.52612305 C-80.54050695 269.30488512 -80.54925217 267.08365201 -80.55955505 264.86242676 C-80.58205555 258.8354237 -80.57910726 252.80868318 -80.57023358 246.78165412 C-80.56512223 241.74695232 -80.57241766 236.71229979 -80.57970566 231.67760307 C-80.59767935 219.11805794 -80.59129201 206.55866958 -80.57353585 193.99914078 C-80.55884849 183.10690723 -80.57345547 172.21494977 -80.60230602 161.32275178 C-80.63174618 150.1240404 -80.64215102 138.92542861 -80.63312382 127.72667342 C-80.62819878 121.44530788 -80.63038737 115.16415678 -80.65091133 108.88281822 C-80.66929438 102.97374937 -80.66327695 97.06519233 -80.63871193 91.15615082 C-80.6337121 88.9914583 -80.63717216 86.82672661 -80.64986038 84.66206551 C-80.76923623 62.54024015 -80.76923623 62.54024015 -72.45703125 53.1171875 C-71.58433594 52.37726563 -70.71164063 51.63734375 -69.8125 50.875 C-68.84699219 50.04613281 -67.88148437 49.21726563 -66.88671875 48.36328125 C-63.49505024 45.58661082 -60.09553751 42.82484649 -56.6484375 40.1171875 C-53.62808681 37.70268887 -50.68797801 35.20068364 -47.75 32.6875 C-43.2938507 28.88230057 -38.7583785 25.21185831 -34.125 21.625 C-28.2292134 17.05722062 -22.57208411 12.2528645 -16.97314453 7.32666016 C-8.04839024 -0.51925098 -8.04839024 -0.51925098 0 0 Z " fill="#000100" transform="translate(80,175)"/>
<path d="M0 0 C0.66 0 1.32 0 2 0 C2.31710937 1.03511719 2.63421875 2.07023437 2.9609375 3.13671875 C10.19492989 26.5193473 18.08702761 49.60628609 28 72 C28.36416016 72.82612793 28.72832031 73.65225586 29.10351562 74.50341797 C44.47111359 109.01027757 65.94603731 141.90553596 93.234375 168.20703125 C95 170 95 170 95 171 C32.96 171 -29.08 171 -93 171 C-86.40703518 163.30820771 -86.40703518 163.30820771 -83.1875 160.25 C-78.38218029 155.49009919 -74.15598857 150.32794549 -70 145 C-69.54077148 144.41186523 -69.08154297 143.82373047 -68.60839844 143.21777344 C-53.32347004 123.51606305 -40.82653091 102.3852448 -29.95898438 79.96679688 C-29.01339812 78.02747843 -28.04693735 76.09967401 -27.078125 74.171875 C-20.65980524 61.19665264 -15.86908687 47.61469245 -11 34 C-10.6498584 33.02933594 -10.2997168 32.05867188 -9.93896484 31.05859375 C-6.24149632 20.79980589 -2.80954129 10.54014249 0 0 Z " fill="#07465D" transform="translate(255,294)"/>
<path d="M0 0 C0.7139946 -0.0066568 1.4279892 -0.0133136 2.16362 -0.02017212 C3.67407662 -0.03029067 5.18457788 -0.03498938 6.69506836 -0.03466797 C8.99343703 -0.03902782 11.28986341 -0.07531363 13.58789062 -0.11328125 C15.05858722 -0.11915253 16.52929289 -0.12311984 18 -0.125 C18.68145584 -0.13937103 19.36291168 -0.15374207 20.0650177 -0.16854858 C26.22910491 -0.11024513 29.60599912 2.46798157 34.05859375 6.44140625 C36.51769027 10.77995511 36.12895015 14.75766973 35.94921875 19.6484375 C35.93117188 20.57978516 35.913125 21.51113281 35.89453125 22.47070312 C35.84756763 24.76017947 35.7819135 27.04751934 35.69921875 29.3359375 C37.00117188 29.28953125 38.303125 29.243125 39.64453125 29.1953125 C41.37107071 29.15777903 43.09763511 29.12138057 44.82421875 29.0859375 C45.68015625 29.05242187 46.53609375 29.01890625 47.41796875 28.984375 C53.05652485 28.89762798 56.23603106 29.54878133 60.69921875 33.3359375 C66.74120852 40.03111535 65.94623531 46.39271954 66.01171875 55.0234375 C66.05522461 56.90579102 66.05522461 56.90579102 66.09960938 58.82617188 C66.1537782 66.73898666 65.91828502 73.03651419 60.09692383 78.96875 C53.83355583 84.37069992 44.39944224 82.72969893 36.69921875 82.3359375 C36.745625 83.398125 36.79203125 84.4603125 36.83984375 85.5546875 C37.28225498 99.89491361 37.28225498 99.89491361 32.69921875 106.3359375 C26.39670392 112.33101258 19.74583035 111.58556833 11.55786133 111.63110352 C10.11570418 111.64261742 8.67358946 111.66306041 7.23168945 111.69262695 C5.14114614 111.73547675 3.05186641 111.75149496 0.9609375 111.76171875 C-0.9113855 111.78359253 -0.9113855 111.78359253 -2.8215332 111.8059082 C-6.96461355 111.2462682 -9.06625342 109.93829284 -12.30078125 107.3359375 C-16.70391397 101.50476174 -17.44434715 97.28847233 -17.36328125 90.1484375 C-17.35876953 89.39884766 -17.35425781 88.64925781 -17.34960938 87.87695312 C-17.33784479 86.02991367 -17.3199099 84.18291537 -17.30078125 82.3359375 C-18.44675781 82.38234375 -19.59273437 82.42875 -20.7734375 82.4765625 C-22.30335916 82.51410659 -23.83330926 82.55050391 -25.36328125 82.5859375 C-26.11544922 82.61945313 -26.86761719 82.65296875 -27.64257812 82.6875 C-33.3792521 82.78683635 -36.59465138 81.64986207 -41.30078125 78.3359375 C-47.02983794 70.94846967 -46.51458897 64.53079076 -46.55078125 55.5234375 C-46.57140625 54.25177734 -46.59203125 52.98011719 -46.61328125 51.66992188 C-46.6184375 50.43951172 -46.62359375 49.20910156 -46.62890625 47.94140625 C-46.63825195 46.81887451 -46.64759766 45.69634277 -46.65722656 44.53979492 C-46.17921012 40.24321293 -44.72903173 36.86594628 -41.765625 33.69140625 C-37.85908921 30.70405535 -35.83334465 29.20572041 -30.94921875 29.23828125 C-30.0984375 29.24150391 -29.24765625 29.24472656 -28.37109375 29.24804688 C-27.03691406 29.26061523 -27.03691406 29.26061523 -25.67578125 29.2734375 C-24.77859375 29.27794922 -23.88140625 29.28246094 -22.95703125 29.28710938 C-20.73821477 29.29891159 -18.51953107 29.31537595 -16.30078125 29.3359375 C-16.3479126 28.48213501 -16.3479126 28.48213501 -16.39599609 27.61108398 C-16.52173507 24.9989496 -16.59905963 22.38745256 -16.67578125 19.7734375 C-16.72605469 18.87818359 -16.77632812 17.98292969 -16.828125 17.06054688 C-16.93551044 12.17450935 -16.67094582 9.13232154 -13.46484375 5.30859375 C-9.24152006 0.97440617 -5.92561538 0.01918223 0 0 Z " fill="#040301" transform="translate(246.30078125,115.6640625)"/>
<path d="M0 0 C3.95889696 3.03845342 7.69411665 6.27306003 11.41259766 9.59814453 C13.76298535 11.6738022 16.19062484 13.64902358 18.625 15.625 C19.51703125 16.35203125 20.4090625 17.0790625 21.328125 17.828125 C22.20984375 18.54484375 23.0915625 19.2615625 24 20 C30.44373941 25.23789344 36.83016662 30.5338025 43.15917969 35.90917969 C48.38447188 40.3405996 53.68355885 44.67844842 59 49 C64.82281111 53.73316225 70.60470548 58.50416573 76.3125 63.375 C80.74861488 67.1578153 85.26600025 70.80532258 89.875 74.375 C95.61865365 78.82926201 101.1273402 83.50929095 106.59619141 88.29541016 C111.96410722 92.9900572 117.45262615 97.51878809 123 102 C128.82435946 106.73122455 134.60474156 111.50419652 140.3125 116.375 C144.74861956 120.15781929 149.26605845 123.80524066 153.875 127.375 C178.4221598 146.41793927 178.4221598 146.41793927 179.43359375 150.9375 C179.4439994 156.43168077 179.4439994 156.43168077 177.4375 159 C174.04665062 160.3911177 171.65393811 160.34600246 168 160 C165.54757182 158.51485235 163.64077001 157.15531488 161.5 155.3125 C160.90251953 154.82136719 160.30503906 154.33023438 159.68945312 153.82421875 C157.77375618 152.23743959 155.88391669 150.62434841 154 149 C153.37996094 148.46552246 152.75992187 147.93104492 152.12109375 147.38037109 C149.60964458 145.20775784 147.10337822 143.02951265 144.60742188 140.83911133 C140.50551007 137.25205944 136.31273391 133.82966189 132 130.5 C126.29276966 126.09166771 120.82931559 121.45288822 115.40332031 116.70410156 C110.03549122 112.00970634 104.54719557 107.48106789 99 103 C92.55454718 97.76425093 86.16979516 92.46616505 79.84082031 87.09082031 C74.61552812 82.6594004 69.31644115 78.32155158 64 74 C58.17718889 69.26683775 52.39529452 64.49583427 46.6875 59.625 C42.25138512 55.8421847 37.73399975 52.19467742 33.125 48.625 C28.05099435 44.69005684 23.14706999 40.60049514 18.3125 36.375 C2.91459297 21.02597147 2.91459297 21.02597147 -15.5625 11.5625 C-24.3154948 12.67651752 -31.27020265 20.63343721 -37.7421875 26.20703125 C-40.62246546 28.68731758 -43.54902649 31.10394716 -46.5 33.5 C-50.48386284 36.74013157 -54.40750882 40.04107136 -58.3125 43.375 C-62.74850923 47.15791912 -67.2659088 50.80546102 -71.875 54.375 C-77.55837978 58.78019313 -82.99232688 63.41914351 -88.39404297 68.16357422 C-92.49670732 71.74823075 -96.68802825 75.17092654 -101 78.5 C-106.70723034 82.90833229 -112.17068441 87.54711178 -117.59667969 92.29589844 C-122.96450878 96.99029366 -128.45280443 101.51893211 -134 106 C-139.30910305 110.31267315 -144.59776165 114.64167905 -149.79101562 119.09326172 C-151.96993815 120.95490935 -154.16314578 122.79883911 -156.36376953 124.63476562 C-157.45639054 125.54642434 -158.54591104 126.46181167 -159.63232422 127.38085938 C-161.19650245 128.69278133 -162.78118766 129.97434171 -164.375 131.25 C-165.74785156 132.37148438 -165.74785156 132.37148438 -167.1484375 133.515625 C-170.89465021 135.46570833 -172.96855346 135.03854595 -177 134 C-180 132 -180 132 -180.875 129.1875 C-181.03026167 125.22832737 -180.31163541 124.19644976 -178 121 C-175.75661991 118.76138838 -173.36354456 116.72470537 -170.9375 114.6875 C-169.92550537 113.82439209 -169.92550537 113.82439209 -168.89306641 112.94384766 C-164.49927766 109.21295566 -160.03718936 105.57692133 -155.5078125 102.01171875 C-152.53759684 99.62906911 -149.64399151 97.16142373 -146.75 94.6875 C-142.29370153 90.88244609 -137.75820777 87.21210462 -133.125 83.625 C-127.38126264 79.17085333 -121.87265247 74.49070264 -116.40380859 69.70458984 C-111.03589278 65.0099428 -105.54737385 60.48121191 -100 56 C-94.17564054 51.26877545 -88.39525844 46.49580348 -82.6875 41.625 C-78.25138512 37.8421847 -73.73399975 34.19467742 -69.125 30.625 C-64.05096766 26.69003615 -59.14742597 22.60011548 -54.3125 18.375 C-19.65234898 -11.87329417 -19.65234898 -11.87329417 0 0 Z " fill="#010100" transform="translate(272,36)"/>
<path d="M0 0 C2.81376432 2.72059331 5.28744636 5.53562277 7.6875 8.625 C11.20747771 13.07060148 14.89071014 17.31018504 18.71875 21.4921875 C20.24064905 23.16523406 21.7408681 24.85825917 23.21875 26.5703125 C31.24315198 36.60357101 31.24315198 36.60357101 42.1171875 42.33984375 C45.1956221 41.98857009 46.8154451 41.1845549 49 39 C49.515625 39.721875 50.03125 40.44375 50.5625 41.1875 C52.72670755 43.68466256 54.01011968 44.6549784 56.75 46.25 C58.625 47.49609375 58.625 47.49609375 60 49 C60.0625 51.03515625 60.0625 51.03515625 59.75 53.3125 C59.48930105 55.68224819 59.48930105 55.68224819 60 58 C63.09242113 61.47053376 67.01450797 63.68560676 71 66 C71.66451172 66.3933252 72.32902344 66.78665039 73.01367188 67.19189453 C89.34449788 76.78569245 105.90312467 84.41219288 124 90 C123.42333395 94.83908112 121.92260875 98.85520666 119.859375 103.22265625 C119.54047302 103.91332184 119.22157104 104.60398743 118.89300537 105.31558228 C117.85175232 107.56759104 116.80081015 109.81493715 115.75 112.0625 C114.66246954 114.4095601 113.57761412 116.75784442 112.49291992 119.10621643 C111.75560946 120.70216086 111.01748543 122.29772968 110.27856445 123.89292908 C106.62071848 131.79548943 103.05091564 139.7364431 99.5 147.6875 C98.93721638 148.94606366 98.37439211 150.20460914 97.81152344 151.46313477 C96.53982416 154.30822713 95.2692272 157.15380418 94 160 C90.38927989 158.73857746 88.02193031 157.39889508 85.328125 154.69140625 C84.66828613 154.03245361 84.00844727 153.37350098 83.32861328 152.69458008 C82.29969971 151.63920044 82.29969971 151.63920044 81.25 150.5625 C80.5369873 149.83893311 79.82397461 149.11536621 79.08935547 148.36987305 C73.68747479 142.83205344 68.71630686 137.13655835 64 131 C63.21625 130.02160156 62.4325 129.04320312 61.625 128.03515625 C35.28064862 94.94395425 18.23229659 55.90405341 4.4375 16.25 C4.21318298 15.60768433 3.98886597 14.96536865 3.75775146 14.30358887 C3.12329768 12.48036226 2.49701774 10.65429751 1.87109375 8.828125 C1.50943115 7.7752832 1.14776855 6.72244141 0.77514648 5.63769531 C0 3 0 3 0 0 Z " fill="#7B7E29" transform="translate(274,299)"/>
<path d="M0 0 C1.10706783 3.32120349 0.95609826 3.83554964 -0.1875 6.96484375 C-0.47004639 7.75383057 -0.75259277 8.54281738 -1.04370117 9.35571289 C-1.35927979 10.20770264 -1.6748584 11.05969238 -2 11.9375 C-2.66340059 13.76799728 -3.32614406 15.59873283 -3.98828125 17.4296875 C-4.32811035 18.36264648 -4.66793945 19.29560547 -5.01806641 20.25683594 C-5.91685368 22.76771953 -6.77208068 25.28710647 -7.60546875 27.8203125 C-22.66589116 73.28840015 -47.08654893 115.22026294 -80 150 C-80.46680176 150.4954834 -80.93360352 150.9909668 -81.41455078 151.50146484 C-82.76612555 152.92742094 -84.13280028 154.33901805 -85.5 155.75 C-86.2940625 156.56984375 -87.088125 157.3896875 -87.90625 158.234375 C-90 160 -90 160 -93 160 C-100.02229553 144.96031407 -106.88641023 129.85621872 -113.625 114.6875 C-113.97788086 113.89388062 -114.33076172 113.10026123 -114.69433594 112.28259277 C-115.70637978 110.00537623 -116.7168473 107.72746864 -117.7265625 105.44921875 C-118.17897812 104.43038857 -118.17897812 104.43038857 -118.64053345 103.39097595 C-123 93.53345991 -123 93.53345991 -123 90 C-121.82308594 89.62230469 -120.64617187 89.24460937 -119.43359375 88.85546875 C-87.55586358 78.33440887 -58.99747337 61.47737923 -34.578125 38.42578125 C-32.33280639 36.31314056 -30.0409979 34.30219384 -27.6875 32.3125 C-24.43427288 29.48768139 -21.62466654 26.44278773 -18.84375 23.15625 C-16.80839576 20.77592046 -14.68792988 18.48762275 -12.5625 16.1875 C-7.9461755 11.08733393 -3.93295098 5.63687252 0 0 Z " fill="#7B7E29" transform="translate(237,299)"/>
<path d="M0 0 C7.26 0 14.52 0 22 0 C22.04898438 1.61390625 22.09796875 3.2278125 22.1484375 4.890625 C22.22347498 7.01043383 22.29902239 9.13022466 22.375 11.25 C22.4059375 12.31347656 22.436875 13.37695312 22.46875 14.47265625 C22.52675781 16.00986328 22.52675781 16.00986328 22.5859375 17.578125 C22.6173584 18.52075195 22.6487793 19.46337891 22.68115234 20.43457031 C23.0103211 23.08304297 23.57064157 24.75849166 25 27 C27.62723396 28.31361698 29.72610561 28.21253909 32.6640625 28.31640625 C34.34628906 28.37924805 34.34628906 28.37924805 36.0625 28.44335938 C37.238125 28.48267578 38.41375 28.52199219 39.625 28.5625 C40.80835938 28.60568359 41.99171875 28.64886719 43.2109375 28.69335938 C46.14047907 28.79967338 49.07022377 28.90036217 52 29 C52 36.59 52 44.18 52 52 C50.15792969 52.02578125 48.31585938 52.0515625 46.41796875 52.078125 C44.0077884 52.1343938 41.59763307 52.1917414 39.1875 52.25 C37.36508789 52.27126953 37.36508789 52.27126953 35.50585938 52.29296875 C34.34248047 52.32519531 33.17910156 52.35742188 31.98046875 52.390625 C30.90692139 52.41157227 29.83337402 52.43251953 28.72729492 52.45410156 C25.93395903 52.76870566 25.93395903 52.76870566 24.15820312 54.68554688 C22.75633576 57.48691759 22.57146557 59.51289439 22.48828125 62.640625 C22.45283203 63.71054688 22.41738281 64.78046875 22.38085938 65.8828125 C22.35830078 66.99398437 22.33574219 68.10515625 22.3125 69.25 C22.27833984 70.37664062 22.24417969 71.50328125 22.20898438 72.6640625 C22.12657726 75.44235954 22.06161028 78.22116399 22 81 C14.74 81 7.48 81 0 81 C-0.02578125 79.31390625 -0.0515625 77.6278125 -0.078125 75.890625 C-0.13440214 73.67705731 -0.19174956 71.46351664 -0.25 69.25 C-0.26417969 68.13882813 -0.27835938 67.02765625 -0.29296875 65.8828125 C-0.34130859 64.27792969 -0.34130859 64.27792969 -0.390625 62.640625 C-0.41157227 61.65610352 -0.43251953 60.67158203 -0.45410156 59.65722656 C-1.15986322 56.2218465 -2.17179911 55.04759846 -5 53 C-7.79057324 52.36264134 -7.79057324 52.36264134 -10.859375 52.390625 C-11.97441406 52.35839844 -13.08945313 52.32617188 -14.23828125 52.29296875 C-15.39714844 52.27878906 -16.55601562 52.26460937 -17.75 52.25 C-18.92433594 52.22035156 -20.09867188 52.19070312 -21.30859375 52.16015625 C-24.2053595 52.08950343 -27.1026842 52.04248264 -30 52 C-30 44.41 -30 36.82 -30 29 C-28.30230469 28.93941406 -26.60460937 28.87882812 -24.85546875 28.81640625 C-22.63280374 28.73200125 -20.41014795 28.64735323 -18.1875 28.5625 C-16.50817383 28.50352539 -16.50817383 28.50352539 -14.79492188 28.44335938 C-13.72177734 28.40146484 -12.64863281 28.35957031 -11.54296875 28.31640625 C-10.55321045 28.27974854 -9.56345215 28.24309082 -8.54370117 28.20532227 C-5.8781649 28.09209669 -5.8781649 28.09209669 -3 27 C-0.77464206 23.66196309 -0.71021596 22.37180289 -0.5859375 18.45703125 C-0.54726562 17.38388672 -0.50859375 16.31074219 -0.46875 15.20507812 C-0.42234375 13.52575195 -0.42234375 13.52575195 -0.375 11.8125 C-0.33632812 10.68134766 -0.29765625 9.55019531 -0.2578125 8.38476562 C-0.16347829 5.59011456 -0.0806477 2.79507951 0 0 Z " fill="#D95A63" transform="translate(245,131)"/>
<path d="M0 0 C1.02359826 -0.01571004 1.02359826 -0.01571004 2.06787527 -0.03173745 C4.3540304 -0.06173589 6.63929024 -0.06314748 8.92562866 -0.06448364 C10.56516022 -0.07972749 12.20467747 -0.09658261 13.84417725 -0.1149292 C18.29904274 -0.15883949 22.75363365 -0.17642039 27.20869112 -0.18658209 C29.9941753 -0.19386972 32.77958762 -0.20635028 35.5650444 -0.22058487 C45.28943792 -0.26958988 55.013618 -0.29567909 64.73812866 -0.30276489 C73.79084606 -0.31002755 82.84220393 -0.36975216 91.8945061 -0.45357406 C99.67391889 -0.52307342 107.45288243 -0.55386341 115.23260343 -0.55525696 C119.87576694 -0.55684016 124.51754723 -0.57419867 129.16038895 -0.63125229 C133.53270798 -0.68377765 137.902506 -0.68794235 142.27499771 -0.65594101 C143.87373881 -0.65232382 145.47262742 -0.66558954 147.07105255 -0.69757843 C159.10895173 -0.92367011 159.10895173 -0.92367011 164.44779587 2.8196373 C166.95264128 5.27933895 169.1645469 7.69676994 171.20834351 10.54830933 C171.20834351 10.87830933 171.20834351 11.20830933 171.20834351 11.54830933 C109.16834351 11.54830933 47.12834351 11.54830933 -16.79165649 11.54830933 C-14.81165649 9.23830933 -12.83165649 6.92830933 -10.79165649 4.54830933 C-10.14798441 3.75524321 -9.50431232 2.96217709 -8.84113503 2.14507866 C-5.89375718 -0.15125306 -3.70686984 0.02820917 0 0 Z " fill="#042E3A" transform="translate(178.79165649414063,453.4516906738281)"/>
<path d="M0 0 C0.02698189 1.62490954 0.04638757 3.24994633 0.0625 4.875 C0.07410156 5.77992188 0.08570313 6.68484375 0.09765625 7.6171875 C0 10 0 10 -1 12 C-38.62 12 -76.24 12 -115 12 C-112 3 -112 3 -111 1 C-96.67505219 0.86956111 -82.35010391 0.73917446 -68.02515507 0.60884857 C-61.37427308 0.54833847 -54.72339125 0.48781137 -48.07250977 0.42724609 C-41.65997287 0.36885188 -35.24743557 0.31050145 -28.83489799 0.25218201 C-26.38235904 0.22986934 -23.92982023 0.20754061 -21.47728157 0.18519592 C-18.05524864 0.15402102 -14.63321521 0.12290204 -11.21118164 0.09179688 C-9.6737027 0.07777077 -9.6737027 0.07777077 -8.10516357 0.0634613 C-7.17823196 0.05504715 -6.25130035 0.046633 -5.29627991 0.03796387 C-4.48602387 0.03058952 -3.67576784 0.02321518 -2.8409586 0.01561737 C-1.89399216 0.00758399 -0.94700051 0 0 0 Z " fill="#AC9D48" transform="translate(497,453)"/>
<path d="M0 0 C36.63 0.33 73.26 0.66 111 1 C115 10 115 10 115 12 C77.38 12 39.76 12 1 12 C0 10 0 10 0 0 Z " fill="#AC9D48" transform="translate(15,453)"/>
<path d="M0 0 C1.19302761 3.57908282 0.75441735 4.32412983 -0.59765625 7.7421875 C-0.97970215 8.7113208 -1.36174805 9.6804541 -1.75537109 10.67895508 C-2.4023999 12.26099731 -2.4023999 12.26099731 -3.0625 13.875 C-3.50932129 14.97545654 -3.95614258 16.07591309 -4.41650391 17.2097168 C-18.28272925 50.76014768 -35.70636071 82.79716906 -60 110 C-60.75667969 110.86625 -61.51335937 111.7325 -62.29296875 112.625 C-66.36669949 117.23949146 -70.57795327 121.71868227 -74.875 126.125 C-75.77992188 127.05570312 -76.68484375 127.98640625 -77.6171875 128.9453125 C-80 131 -80 131 -83 131 C-83.67408308 129.73308493 -84.33900497 128.46129251 -85 127.1875 C-85.37125 126.47980469 -85.7425 125.77210938 -86.125 125.04296875 C-87 123 -87 123 -87 120 C-84.9453125 118.08984375 -84.9453125 118.08984375 -82.125 115.9375 C-46.34524776 87.60803036 -21.7574094 44.38646922 -2 4 C-1.33503891 2.66581524 -0.66934269 1.33199196 0 0 Z " fill="#686724" transform="translate(227,328)"/>
<path d="M0 0 C2.86127446 2.51076166 4.34870588 5.2768286 6.08203125 8.64453125 C6.67709473 9.7855127 7.2721582 10.92649414 7.88525391 12.10205078 C8.19891907 12.7069635 8.51258423 13.31187622 8.83575439 13.93511963 C23.23241425 41.60661001 40.50514629 67.50414713 61.68359375 90.4609375 C63.57915932 92.53870752 65.38969872 94.6514601 67.1875 96.8125 C72.88052618 103.40369779 79.58821496 109.12459337 86 115 C84.68 118.3 83.36 121.6 82 125 C77.75351826 123.3014073 76.30562677 122.68403262 73.328125 119.69140625 C72.66828613 119.03245361 72.00844727 118.37350098 71.32861328 117.69458008 C70.29969971 116.63920044 70.29969971 116.63920044 69.25 115.5625 C68.5369873 114.83893311 67.82397461 114.11536621 67.08935547 113.36987305 C61.68747479 107.83205344 56.71630686 102.13655835 52 96 C51.21625 95.02160156 50.4325 94.04320312 49.625 93.03515625 C29.84359952 68.18769238 14.92263263 39.3393183 2.75 10.125 C2.46213623 9.43567383 2.17427246 8.74634766 1.87768555 8.03613281 C0.72807774 5.18823243 0 3.1030371 0 0 Z " fill="#686724" transform="translate(286,334)"/>
</svg>
